
<svg width="48" height="48" viewBox="0 0 48 48" fill="none" xmlns="http://www.w3.org/2000/svg">
  <rect width="48" height="48" rx="12" fill="#6936F5" />
  <path d="M16 20C16 16.6863 18.6863 14 22 14H26C29.3137 14 32 16.6863 32 20V24C32 27.3137 29.3137 30 26 30H22C18.6863 30 16 27.3137 16 24V20Z" fill="white" />
  <path d="M20 32C20 30.8954 20.8954 30 22 30H26C27.1046 30 28 30.8954 28 32V34C28 35.1046 27.1046 36 26 36H22C20.8954 36 20 35.1046 20 34V32Z" fill="#FF7940" />
  <path d="M28 18H20V22H28V18Z" fill="#6936F5" />
</svg>
